<svg xmlns="http://www.w3.org/2000/svg" xmlns:xlink="http://www.w3.org/1999/xlink" width="525" zoomAndPan="magnify" viewBox="0 0 393.75 393.74999" height="525" preserveAspectRatio="xMidYMid meet" version="1.0"><defs><clipPath id="d87103d154"><path d="M 46.792969 30 L 346.707031 30 L 346.707031 363 L 46.792969 363 Z M 46.792969 30 " clip-rule="nonzero"/></clipPath><clipPath id="d33e58a3ad"><path d="M 332.445312 245.171875 C 327.34375 248.332031 323.410156 235.300781 330.988281 227.945312 C 328.324219 236.917969 336.628906 242.570312 332.445312 245.171875 M 253.140625 153.59375 C 248.410156 153.59375 244.5625 149.746094 244.5625 145.015625 C 244.5625 140.289062 248.398438 136.441406 253.140625 136.441406 C 257.882812 136.441406 261.714844 140.273438 261.714844 145.015625 C 261.714844 149.757812 257.882812 153.59375 253.140625 153.59375 M 231.207031 84.863281 C 212.066406 80.746094 240.046875 46.230469 240.046875 46.230469 C 240.046875 46.230469 248.234375 88.535156 231.207031 84.863281 M 194.503906 232.140625 C 194.503906 232.140625 169.214844 227.296875 162.980469 201.710938 C 162.980469 201.710938 169.066406 221.621094 194.503906 232.140625 M 346.035156 231.007812 C 344.207031 222.144531 339.03125 215.175781 332.90625 212.261719 L 280.371094 130.042969 C 279.960938 119.230469 273.402344 109.792969 263.84375 105.4375 L 256.699219 94.945312 C 268.375 85.984375 267.441406 57.507812 266.507812 45.746094 C 266.257812 42.609375 264.253906 39.910156 261.328125 38.753906 C 257.980469 37.433594 254.171875 38.453125 251.933594 41.265625 C 251.296875 42.0625 250.585938 42.933594 249.851562 43.84375 C 250.722656 54.609375 249.132812 68.671875 249.132812 68.671875 C 248.570312 58.988281 246.839844 47.414062 246.839844 47.414062 C 246.292969 43.382812 245.644531 39.796875 245.097656 37.109375 C 244.476562 34.035156 242.160156 31.582031 239.125 30.785156 C 235.640625 29.878906 231.980469 31.347656 230.089844 34.410156 C 226.042969 40.953125 219.609375 50.898438 209.75 60.070312 C 207.835938 59.933594 205.90625 59.8125 204 59.75 L 203.800781 65.148438 C 201.75 66.753906 199.570312 68.300781 197.257812 69.78125 L 197.167969 59.660156 C 191.71875 59.710938 186.214844 60.046875 180.828125 60.667969 L 182.730469 77.109375 C 180.851562 77.832031 178.898438 78.492188 176.882812 79.089844 L 174.054688 61.617188 C 168.667969 62.488281 163.277344 63.65625 158.027344 65.113281 L 162.878906 82.6875 C 160.949219 83.234375 159.035156 83.832031 157.140625 84.480469 L 151.492188 67.066406 C 146.3125 68.746094 141.160156 70.738281 136.195312 72.992188 L 143.761719 89.78125 C 141.945312 90.613281 140.152344 91.5 138.386719 92.417969 L 130.046875 75.941406 C 125.191406 78.394531 120.414062 81.15625 115.847656 84.128906 L 126 99.738281 C 124.335938 100.84375 122.703125 101.976562 121.085938 103.160156 L 110.195312 87.976562 C 105.765625 91.148438 101.46875 94.597656 97.414062 98.21875 L 109.957031 112.246094 C 108.488281 113.589844 107.046875 114.972656 105.628906 116.378906 L 92.421875 102.875 C 88.527344 106.683594 84.804688 110.742188 81.34375 114.945312 L 95.996094 127.019531 C 94.738281 128.5625 93.53125 130.15625 92.347656 131.761719 L 77.113281 120.3125 C 73.839844 124.667969 70.765625 129.246094 67.992188 133.925781 L 84.480469 143.722656 C 83.472656 145.441406 82.515625 147.183594 81.582031 148.949219 L 64.628906 139.902344 C 62.054688 144.71875 59.726562 149.710938 57.699219 154.773438 L 75.632812 161.980469 C 74.898438 163.824219 74.214844 165.703125 73.578125 167.59375 L 55.28125 161.183594 C 53.476562 166.324219 51.949219 171.625 50.714844 176.941406 L 69.65625 181.335938 C 69.222656 183.265625 68.824219 185.207031 68.476562 187.171875 L 49.320312 183.636719 C 48.339844 188.988281 47.628906 194.453125 47.21875 199.890625 L 66.734375 201.347656 C 66.597656 203.316406 66.496094 205.304688 66.445312 207.296875 L 46.871094 206.699219 C 46.820312 208.230469 46.792969 209.761719 46.792969 211.304688 C 46.792969 215.214844 46.945312 219.171875 47.242188 223.066406 L 66.820312 221.5625 C 66.980469 223.550781 67.179688 225.519531 67.429688 227.484375 L 47.914062 229.875 C 48.574219 235.289062 49.546875 240.714844 50.777344 246.015625 L 69.945312 241.535156 C 70.40625 243.464844 70.890625 245.394531 71.4375 247.285156 L 52.496094 252.636719 C 53.976562 257.878906 55.769531 263.105469 57.808594 268.160156 L 76.082031 260.765625 C 76.828125 262.59375 77.597656 264.414062 78.421875 266.21875 L 60.511719 274.433594 C 62.777344 279.386719 65.339844 284.265625 68.140625 288.945312 L 85.054688 278.851562 C 86.074219 280.554688 87.121094 282.234375 88.203125 283.878906 L 71.761719 294.71875 C 74.75 299.261719 78.035156 303.691406 81.507812 307.898438 L 96.652344 295.378906 C 97.910156 296.910156 99.207031 298.414062 100.535156 299.882812 L 85.976562 313.066406 C 89.632812 317.097656 93.542969 320.980469 97.613281 324.601562 L 110.644531 309.953125 C 112.125 311.285156 113.628906 312.578125 115.160156 313.835938 L 102.816406 329.007812 C 107.035156 332.441406 111.503906 335.691406 116.070312 338.652344 L 126.675781 322.289062 C 128.339844 323.382812 130.023438 324.429688 131.726562 325.449219 L 121.882812 342.238281 C 126.585938 344.988281 131.492188 347.515625 136.46875 349.753906 L 144.398438 332.082031 C 146.203125 332.902344 148.03125 333.6875 149.886719 334.433594 L 142.792969 352.417969 C 147.871094 354.421875 153.097656 356.164062 158.363281 357.597656 L 163.441406 339.050781 C 165.34375 339.585938 167.273438 340.085938 169.214844 340.53125 L 165.007812 359.253906 C 170.324219 360.445312 175.761719 361.367188 181.175781 361.976562 L 183.328125 343.035156 C 185.296875 343.269531 187.285156 343.484375 189.277344 343.632812 L 187.984375 362.601562 C 191.457031 362.835938 194.976562 362.960938 198.476562 362.960938 C 200.441406 362.960938 202.421875 362.921875 204.363281 362.847656 L 203.640625 343.957031 C 205.644531 343.894531 207.636719 343.792969 209.613281 343.65625 L 211.171875 362.4375 C 216.609375 361.992188 222.074219 361.230469 227.414062 360.199219 L 223.867188 341.816406 C 225.832031 341.453125 227.785156 341.042969 229.726562 340.59375 L 234.097656 358.742188 C 239.398438 357.472656 244.589844 355.917969 249.714844 354.0625 L 237.917969 330.164062 C 236.734375 330.539062 235.550781 330.898438 234.371094 331.234375 C 232.253906 331.894531 230.089844 332.367188 227.949219 332.929688 C 225.78125 333.375 223.628906 333.898438 221.4375 334.234375 C 212.714844 335.777344 203.839844 336.386719 195.003906 336.039062 C 186.167969 335.730469 177.355469 334.484375 168.777344 332.332031 C 134.414062 323.792969 104.257812 299.882812 88.316406 268.382812 C 80.273438 252.699219 75.644531 235.3125 74.8125 217.765625 C 74.710938 215.574219 74.710938 213.371094 74.660156 211.179688 C 74.699219 208.988281 74.847656 206.800781 74.933594 204.609375 L 75.085938 201.324219 C 75.148438 200.226562 75.332031 199.144531 75.457031 198.050781 L 76.28125 191.527344 C 76.664062 189.375 77.152344 187.234375 77.574219 185.082031 L 78.234375 181.859375 C 78.507812 180.800781 78.832031 179.753906 79.128906 178.695312 L 80.972656 172.386719 L 83.273438 166.238281 C 83.671875 165.21875 83.996094 164.171875 84.46875 163.175781 L 85.863281 160.203125 L 87.257812 157.226562 C 87.730469 156.242188 88.152344 155.234375 88.726562 154.289062 L 91.949219 148.578125 L 92.757812 147.144531 L 93.667969 145.777344 L 95.484375 143.050781 C 97.800781 139.339844 100.625 135.992188 103.289062 132.546875 C 104.695312 130.878906 106.199219 129.296875 107.65625 127.679688 L 109.859375 125.265625 L 112.238281 123.011719 C 118.386719 116.828125 125.453125 111.636719 132.734375 106.933594 L 138.347656 103.621094 C 140.226562 102.539062 142.230469 101.667969 144.160156 100.683594 L 147.085938 99.253906 C 148.070312 98.792969 149.089844 98.429688 150.097656 98.007812 L 156.070312 95.628906 L 150.109375 98.21875 C 149.125 98.667969 148.105469 99.054688 147.148438 99.550781 L 144.273438 101.070312 C 142.382812 102.113281 140.414062 103.035156 138.574219 104.167969 L 133.082031 107.617188 C 125.953125 112.457031 119.070312 117.761719 113.132812 124.019531 L 110.84375 126.296875 L 108.726562 128.738281 C 107.332031 130.378906 105.875 131.960938 104.53125 133.640625 C 101.980469 137.113281 99.28125 140.460938 97.089844 144.171875 L 95.359375 146.882812 L 94.5 148.242188 L 93.742188 149.660156 L 90.703125 155.335938 C 90.167969 156.269531 89.785156 157.265625 89.335938 158.246094 L 88.042969 161.195312 L 86.746094 164.132812 C 86.3125 165.117188 86 166.152344 85.625 167.144531 L 83.460938 173.195312 L 81.753906 179.394531 C 81.480469 180.425781 81.183594 181.460938 80.921875 182.492188 L 80.324219 185.652344 C 79.9375 187.757812 79.492188 189.859375 79.15625 191.964844 L 78.445312 198.347656 C 78.34375 199.417969 78.171875 200.476562 78.132812 201.546875 L 78.035156 204.757812 C 77.984375 206.898438 77.871094 209.039062 77.859375 211.167969 C 77.949219 213.308594 77.972656 215.449219 78.109375 217.578125 C 79.191406 234.640625 83.945312 251.417969 91.949219 266.464844 C 95.945312 273.984375 100.710938 281.089844 106.164062 287.636719 C 111.625 294.160156 117.773438 300.109375 124.472656 305.347656 C 137.851562 315.828125 153.433594 323.519531 169.949219 327.503906 C 178.199219 329.519531 186.652344 330.636719 195.140625 330.875 C 203.628906 331.148438 212.128906 330.515625 220.46875 328.972656 C 222.558594 328.632812 224.613281 328.113281 226.691406 327.675781 C 228.730469 327.128906 230.8125 326.65625 232.828125 326.019531 C 233.511719 325.820312 234.195312 325.609375 234.867188 325.398438 C 234.433594 324.664062 233.996094 323.929688 233.574219 323.183594 C 225.535156 324.054688 217.40625 324.179688 209.292969 323.257812 C 202.246094 322.4375 195.226562 320.78125 188.605469 318.019531 C 181.996094 315.253906 175.722656 311.496094 170.460938 306.566406 C 165.195312 301.664062 160.726562 295.828125 157.703125 289.304688 C 154.640625 282.808594 152.761719 275.789062 152.175781 268.695312 C 151.554688 261.601562 152.050781 254.46875 153.46875 247.546875 L 154.675781 242.457031 C 154.800781 241.710938 155.027344 240.976562 155.015625 240.203125 L 155.074219 239.058594 L 154.988281 237.902344 C 154.726562 234.804688 153.46875 231.714844 151.914062 228.78125 C 148.777344 222.855469 144.582031 217.316406 140.960938 211.390625 C 139.144531 208.429688 137.425781 205.378906 135.921875 202.230469 C 134.414062 199.082031 133.183594 195.773438 132.273438 192.375 C 131.339844 188.988281 130.84375 185.492188 130.757812 181.996094 C 130.65625 180.238281 130.804688 178.496094 130.894531 176.753906 C 130.980469 175.882812 131.117188 175.023438 131.230469 174.152344 L 131.402344 172.859375 L 131.675781 171.578125 C 133.082031 164.742188 135.933594 158.335938 139.480469 152.433594 C 136.21875 158.507812 133.792969 165.03125 132.660156 171.765625 L 132.4375 173.019531 L 132.3125 174.289062 C 132.238281 175.136719 132.125 175.984375 132.089844 176.828125 C 132.074219 178.535156 131.988281 180.226562 132.164062 181.917969 C 132.375 185.304688 132.996094 188.652344 134.015625 191.875 C 135.984375 198.359375 139.367188 204.324219 143.164062 209.984375 C 146.910156 215.699219 151.207031 221.101562 154.703125 227.273438 C 156.421875 230.359375 157.949219 233.746094 158.386719 237.527344 L 158.535156 238.949219 C 158.535156 239.421875 158.523438 239.90625 158.511719 240.390625 C 158.535156 241.351562 158.3125 242.296875 158.148438 243.253906 L 157.105469 248.246094 C 155.921875 254.867188 155.625 261.625 156.371094 268.246094 C 157.828125 281.476562 163.9375 294.109375 173.820312 302.832031 C 178.6875 307.265625 184.472656 310.625 190.597656 313.078125 C 196.746094 315.515625 203.265625 317.046875 209.902344 317.757812 C 216.746094 318.492188 223.667969 318.429688 230.5625 317.769531 C 211.46875 281.851562 206.539062 246.191406 205.285156 228.839844 C 161.335938 208.054688 169.875 174.589844 169.875 174.589844 C 172.363281 210.546875 204.871094 220.128906 204.871094 220.128906 C 209.042969 221.859375 213.546875 222.96875 218.253906 223.328125 L 218.164062 223.464844 C 218.164062 223.464844 258.703125 222.121094 278.578125 252.886719 C 298.457031 283.65625 308.710938 281.089844 315.445312 277.566406 C 315.445312 277.566406 336.066406 279.707031 335.855469 257.480469 L 335.84375 257.34375 C 343.984375 254.105469 348.488281 242.917969 346.023438 230.980469 " clip-rule="nonzero"/></clipPath><clipPath id="3e9803a064"><path d="M 0.792969 0.460938 L 300.707031 0.460938 L 300.707031 333 L 0.792969 333 Z M 0.792969 0.460938 " clip-rule="nonzero"/></clipPath><clipPath id="0647e98eec"><path d="M 286.445312 215.171875 C 281.34375 218.332031 277.410156 205.300781 284.988281 197.945312 C 282.324219 206.917969 290.628906 212.570312 286.445312 215.171875 M 207.140625 123.59375 C 202.410156 123.59375 198.5625 119.746094 198.5625 115.015625 C 198.5625 110.289062 202.398438 106.441406 207.140625 106.441406 C 211.882812 106.441406 215.714844 110.273438 215.714844 115.015625 C 215.714844 119.757812 211.882812 123.59375 207.140625 123.59375 M 185.207031 54.863281 C 166.066406 50.746094 194.046875 16.230469 194.046875 16.230469 C 194.046875 16.230469 202.234375 58.535156 185.207031 54.863281 M 148.503906 202.140625 C 148.503906 202.140625 123.214844 197.296875 116.980469 171.710938 C 116.980469 171.710938 123.066406 191.621094 148.503906 202.140625 M 300.035156 201.007812 C 298.207031 192.144531 293.03125 185.175781 286.90625 182.261719 L 234.371094 100.042969 C 233.960938 89.230469 227.402344 79.792969 217.84375 75.4375 L 210.699219 64.945312 C 222.375 55.984375 221.441406 27.507812 220.507812 15.746094 C 220.257812 12.609375 218.253906 9.910156 215.328125 8.753906 C 211.980469 7.433594 208.171875 8.453125 205.933594 11.265625 C 205.296875 12.0625 204.585938 12.933594 203.851562 13.84375 C 204.722656 24.609375 203.132812 38.671875 203.132812 38.671875 C 202.570312 28.988281 200.839844 17.414062 200.839844 17.414062 C 200.292969 13.382812 199.644531 9.796875 199.097656 7.109375 C 198.476562 4.035156 196.160156 1.582031 193.125 0.785156 C 189.640625 -0.121094 185.980469 1.347656 184.089844 4.410156 C 180.042969 10.953125 173.609375 20.898438 163.75 30.070312 C 161.835938 29.933594 159.90625 29.8125 158 29.75 L 157.800781 35.148438 C 155.75 36.753906 153.570312 38.300781 151.257812 39.78125 L 151.167969 29.660156 C 145.71875 29.710938 140.214844 30.046875 134.828125 30.667969 L 136.730469 47.109375 C 134.851562 47.832031 132.898438 48.492188 130.882812 49.089844 L 128.054688 31.617188 C 122.667969 32.488281 117.277344 33.65625 112.027344 35.113281 L 116.878906 52.6875 C 114.949219 53.234375 113.035156 53.832031 111.140625 54.480469 L 105.492188 37.066406 C 100.3125 38.746094 95.160156 40.738281 90.195312 42.992188 L 97.761719 59.78125 C 95.945312 60.613281 94.152344 61.5 92.386719 62.417969 L 84.046875 45.941406 C 79.191406 48.394531 74.414062 51.15625 69.847656 54.128906 L 80 69.738281 C 78.335938 70.84375 76.703125 71.976562 75.085938 73.160156 L 64.195312 57.976562 C 59.765625 61.148438 55.46875 64.597656 51.414062 68.21875 L 63.957031 82.246094 C 62.488281 83.589844 61.046875 84.972656 59.628906 86.378906 L 46.421875 72.875 C 42.527344 76.683594 38.804688 80.742188 35.34375 84.945312 L 49.996094 97.019531 C 48.738281 98.5625 47.53125 100.15625 46.347656 101.761719 L 31.113281 90.3125 C 27.839844 94.667969 24.765625 99.246094 21.992188 103.925781 L 38.480469 113.722656 C 37.472656 115.441406 36.515625 117.183594 35.582031 118.949219 L 18.628906 109.902344 C 16.054688 114.71875 13.726562 119.710938 11.699219 124.773438 L 29.632812 131.980469 C 28.898438 133.824219 28.214844 135.703125 27.578125 137.59375 L 9.28125 131.183594 C 7.476562 136.324219 5.949219 141.625 4.714844 146.941406 L 23.65625 151.335938 C 23.222656 153.265625 22.824219 155.207031 22.476562 157.171875 L 3.320312 153.636719 C 2.339844 158.988281 1.628906 164.453125 1.21875 169.890625 L 20.734375 171.347656 C 20.597656 173.316406 20.496094 175.304688 20.445312 177.296875 L 0.871094 176.699219 C 0.820312 178.230469 0.792969 179.761719 0.792969 181.304688 C 0.792969 185.214844 0.945312 189.171875 1.242188 193.066406 L 20.820312 191.5625 C 20.980469 193.550781 21.179688 195.519531 21.429688 197.484375 L 1.914062 199.875 C 2.574219 205.289062 3.546875 210.714844 4.777344 216.015625 L 23.945312 211.535156 C 24.40625 213.464844 24.890625 215.394531 25.4375 217.285156 L 6.496094 222.636719 C 7.976562 227.878906 9.769531 233.105469 11.808594 238.160156 L 30.082031 230.765625 C 30.828125 232.59375 31.597656 234.414062 32.421875 236.21875 L 14.511719 244.433594 C 16.777344 249.386719 19.339844 254.265625 22.140625 258.945312 L 39.054688 248.851562 C 40.074219 250.554688 41.121094 252.234375 42.203125 253.878906 L 25.761719 264.71875 C 28.75 269.261719 32.035156 273.691406 35.507812 277.898438 L 50.652344 265.378906 C 51.910156 266.910156 53.207031 268.414062 54.535156 269.882812 L 39.976562 283.066406 C 43.632812 287.097656 47.542969 290.980469 51.613281 294.601562 L 64.644531 279.953125 C 66.125 281.285156 67.628906 282.578125 69.160156 283.835938 L 56.816406 299.007812 C 61.035156 302.441406 65.503906 305.691406 70.070312 308.652344 L 80.675781 292.289062 C 82.339844 293.382812 84.023438 294.429688 85.726562 295.449219 L 75.882812 312.238281 C 80.585938 314.988281 85.492188 317.515625 90.46875 319.753906 L 98.398438 302.082031 C 100.203125 302.902344 102.03125 303.6875 103.886719 304.433594 L 96.792969 322.417969 C 101.871094 324.421875 107.097656 326.164062 112.363281 327.597656 L 117.441406 309.050781 C 119.34375 309.585938 121.273438 310.085938 123.214844 310.53125 L 119.007812 329.253906 C 124.324219 330.445312 129.761719 331.367188 135.175781 331.976562 L 137.328125 313.035156 C 139.296875 313.269531 141.285156 313.484375 143.277344 313.632812 L 141.984375 332.601562 C 145.457031 332.835938 148.976562 332.960938 152.476562 332.960938 C 154.441406 332.960938 156.421875 332.921875 158.363281 332.847656 L 157.640625 313.957031 C 159.644531 313.894531 161.636719 313.792969 163.613281 313.65625 L 165.171875 332.4375 C 170.609375 331.992188 176.074219 331.230469 181.414062 330.199219 L 177.867188 311.816406 C 179.832031 311.453125 181.785156 311.042969 183.726562 310.59375 L 188.097656 328.742188 C 193.398438 327.472656 198.589844 325.917969 203.714844 324.0625 L 191.917969 300.164062 C 190.734375 300.539062 189.550781 300.898438 188.371094 301.234375 C 186.253906 301.894531 184.089844 302.367188 181.949219 302.929688 C 179.78125 303.375 177.628906 303.898438 175.4375 304.234375 C 166.714844 305.777344 157.839844 306.386719 149.003906 306.039062 C 140.167969 305.730469 131.355469 304.484375 122.777344 302.332031 C 88.414062 293.792969 58.257812 269.882812 42.316406 238.382812 C 34.273438 222.699219 29.644531 205.3125 28.8125 187.765625 C 28.710938 185.574219 28.710938 183.371094 28.660156 181.179688 C 28.699219 178.988281 28.847656 176.800781 28.933594 174.609375 L 29.085938 171.324219 C 29.148438 170.226562 29.332031 169.144531 29.457031 168.050781 L 30.28125 161.527344 C 30.664062 159.375 31.152344 157.234375 31.574219 155.082031 L 32.234375 151.859375 C 32.507812 150.800781 32.832031 149.753906 33.128906 148.695312 L 34.972656 142.386719 L 37.273438 136.238281 C 37.671875 135.21875 37.996094 134.171875 38.46875 133.175781 L 39.863281 130.203125 L 41.257812 127.226562 C 41.730469 126.242188 42.152344 125.234375 42.726562 124.289062 L 45.949219 118.578125 L 46.757812 117.144531 L 47.667969 115.777344 L 49.484375 113.050781 C 51.800781 109.339844 54.625 105.992188 57.289062 102.546875 C 58.695312 100.878906 60.199219 99.296875 61.65625 97.679688 L 63.859375 95.265625 L 66.238281 93.011719 C 72.386719 86.828125 79.453125 81.636719 86.734375 76.933594 L 92.347656 73.621094 C 94.226562 72.539062 96.230469 71.667969 98.160156 70.683594 L 101.085938 69.253906 C 102.070312 68.792969 103.089844 68.429688 104.097656 68.007812 L 110.070312 65.628906 L 104.109375 68.21875 C 103.125 68.667969 102.105469 69.054688 101.148438 69.550781 L 98.273438 71.070312 C 96.382812 72.113281 94.414062 73.035156 92.574219 74.167969 L 87.082031 77.617188 C 79.953125 82.457031 73.070312 87.761719 67.132812 94.019531 L 64.84375 96.296875 L 62.726562 98.738281 C 61.332031 100.378906 59.875 101.960938 58.53125 103.640625 C 55.980469 107.113281 53.28125 110.460938 51.089844 114.171875 L 49.359375 116.882812 L 48.5 118.242188 L 47.742188 119.660156 L 44.703125 125.335938 C 44.167969 126.269531 43.785156 127.265625 43.335938 128.246094 L 42.042969 131.195312 L 40.746094 134.132812 C 40.3125 135.117188 40 136.152344 39.625 137.144531 L 37.460938 143.195312 L 35.753906 149.394531 C 35.480469 150.425781 35.183594 151.460938 34.921875 152.492188 L 34.324219 155.652344 C 33.9375 157.757812 33.492188 159.859375 33.15625 161.964844 L 32.445312 168.347656 C 32.34375 169.417969 32.171875 170.476562 32.132812 171.546875 L 32.035156 174.757812 C 31.984375 176.898438 31.871094 179.039062 31.859375 181.167969 C 31.949219 183.308594 31.972656 185.449219 32.109375 187.578125 C 33.191406 204.640625 37.945312 221.417969 45.949219 236.464844 C 49.945312 243.984375 54.710938 251.089844 60.164062 257.636719 C 65.625 264.160156 71.773438 270.109375 78.472656 275.347656 C 91.851562 285.828125 107.433594 293.519531 123.949219 297.503906 C 132.199219 299.519531 140.652344 300.636719 149.140625 300.875 C 157.628906 301.148438 166.128906 300.515625 174.46875 298.972656 C 176.558594 298.632812 178.613281 298.113281 180.691406 297.675781 C 182.730469 297.128906 184.8125 296.65625 186.828125 296.019531 C 187.511719 295.820312 188.195312 295.609375 188.867188 295.398438 C 188.433594 294.664062 187.996094 293.929688 187.574219 293.183594 C 179.535156 294.054688 171.40625 294.179688 163.292969 293.257812 C 156.246094 292.4375 149.226562 290.78125 142.605469 288.019531 C 135.996094 285.253906 129.722656 281.496094 124.460938 276.566406 C 119.195312 271.664062 114.726562 265.828125 111.703125 259.304688 C 108.640625 252.808594 106.761719 245.789062 106.175781 238.695312 C 105.554688 231.601562 106.050781 224.46875 107.46875 217.546875 L 108.675781 212.457031 C 108.800781 211.710938 109.027344 210.976562 109.015625 210.203125 L 109.074219 209.058594 L 108.988281 207.902344 C 108.726562 204.804688 107.46875 201.714844 105.914062 198.78125 C 102.777344 192.855469 98.582031 187.316406 94.960938 181.390625 C 93.144531 178.429688 91.425781 175.378906 89.921875 172.230469 C 88.414062 169.082031 87.183594 165.773438 86.273438 162.375 C 85.339844 158.988281 84.84375 155.492188 84.757812 151.996094 C 84.65625 150.238281 84.804688 148.496094 84.894531 146.753906 C 84.980469 145.882812 85.117188 145.023438 85.230469 144.152344 L 85.402344 142.859375 L 85.675781 141.578125 C 87.082031 134.742188 89.933594 128.335938 93.480469 122.433594 C 90.21875 128.507812 87.792969 135.03125 86.660156 141.765625 L 86.4375 143.019531 L 86.3125 144.289062 C 86.238281 145.136719 86.125 145.984375 86.089844 146.828125 C 86.074219 148.535156 85.988281 150.226562 86.164062 151.917969 C 86.375 155.304688 86.996094 158.652344 88.015625 161.875 C 89.984375 168.359375 93.367188 174.324219 97.164062 179.984375 C 100.910156 185.699219 105.207031 191.101562 108.703125 197.273438 C 110.421875 200.359375 111.949219 203.746094 112.386719 207.527344 L 112.535156 208.949219 C 112.535156 209.421875 112.523438 209.90625 112.511719 210.390625 C 112.535156 211.351562 112.3125 212.296875 112.148438 213.253906 L 111.105469 218.246094 C 109.921875 224.867188 109.625 231.625 110.371094 238.246094 C 111.828125 251.476562 117.9375 264.109375 127.820312 272.832031 C 132.6875 277.265625 138.472656 280.625 144.597656 283.078125 C 150.746094 285.515625 157.265625 287.046875 163.902344 287.757812 C 170.746094 288.492188 177.667969 288.429688 184.5625 287.769531 C 165.46875 251.851562 160.539062 216.191406 159.285156 198.839844 C 115.335938 178.054688 123.875 144.589844 123.875 144.589844 C 126.363281 180.546875 158.871094 190.128906 158.871094 190.128906 C 163.042969 191.859375 167.546875 192.96875 172.253906 193.328125 L 172.164062 193.464844 C 172.164062 193.464844 212.703125 192.121094 232.578125 222.886719 C 252.457031 253.65625 262.710938 251.089844 269.445312 247.566406 C 269.445312 247.566406 290.066406 249.707031 289.855469 227.480469 L 289.84375 227.34375 C 297.984375 224.105469 302.488281 212.917969 300.023438 200.980469 " clip-rule="nonzero"/></clipPath><clipPath id="ab375ff308"><rect x="0" width="301" y="0" height="333"/></clipPath></defs><g clip-path="url(#d87103d154)"><g clip-path="url(#d33e58a3ad)"><g transform="matrix(1, 0, 0, 1, 46, 30)"><g clip-path="url(#ab375ff308)"><g clip-path="url(#3e9803a064)"><g clip-path="url(#0647e98eec)"><path fill="#00031c" d="M 0.792969 0.539062 L 300.707031 0.539062 L 300.707031 333.25 L 0.792969 333.25 Z M 0.792969 0.539062 " fill-opacity="1" fill-rule="nonzero"/></g></g></g></g></g></g></svg>