<svg xmlns="http://www.w3.org/2000/svg" xmlns:xlink="http://www.w3.org/1999/xlink" width="500" zoomAndPan="magnify" viewBox="0 0 375 374.999991" height="500" preserveAspectRatio="xMidYMid meet" version="1.0"><defs><clipPath id="a7bc461079"><path d="M 52.199219 37 L 322.800781 37 L 322.800781 337.699219 L 52.199219 337.699219 Z M 52.199219 37 " clip-rule="nonzero"/></clipPath><clipPath id="efad84cc74"><path d="M 309.933594 231.160156 C 305.332031 234.011719 301.78125 222.253906 308.621094 215.617188 C 306.21875 223.714844 313.707031 228.8125 309.933594 231.160156 M 238.378906 148.527344 C 234.109375 148.527344 230.640625 145.058594 230.640625 140.792969 C 230.640625 136.523438 234.101562 133.054688 238.378906 133.054688 C 242.65625 133.054688 246.117188 136.511719 246.117188 140.792969 C 246.117188 145.070312 242.65625 148.527344 238.378906 148.527344 M 218.589844 86.519531 C 201.320312 82.800781 226.566406 51.660156 226.566406 51.660156 C 226.566406 51.660156 233.953125 89.832031 218.589844 86.519531 M 185.476562 219.402344 C 185.476562 219.402344 162.65625 215.03125 157.03125 191.945312 C 157.03125 191.945312 162.519531 209.910156 185.476562 219.402344 M 322.199219 218.378906 C 320.546875 210.382812 315.875 204.09375 310.351562 201.464844 L 262.949219 127.28125 C 262.578125 117.523438 256.660156 109.011719 248.035156 105.082031 L 241.589844 95.613281 C 252.125 87.527344 251.28125 61.835938 250.4375 51.222656 C 250.214844 48.394531 248.40625 45.957031 245.765625 44.910156 C 242.746094 43.722656 239.308594 44.640625 237.289062 47.179688 C 236.714844 47.898438 236.078125 48.683594 235.414062 49.503906 C 236.199219 59.21875 234.761719 71.90625 234.761719 71.90625 C 234.257812 63.171875 232.695312 52.726562 232.695312 52.726562 C 232.203125 49.089844 231.617188 45.855469 231.125 43.429688 C 230.5625 40.65625 228.472656 38.441406 225.734375 37.722656 C 222.589844 36.90625 219.289062 38.230469 217.582031 40.992188 C 213.929688 46.898438 208.125 55.871094 199.230469 64.148438 C 197.5 64.023438 195.761719 63.914062 194.042969 63.855469 L 193.863281 68.730469 C 192.011719 70.179688 190.046875 71.570312 187.957031 72.90625 L 187.878906 63.777344 C 182.960938 63.824219 177.996094 64.125 173.132812 64.6875 L 174.851562 79.523438 C 173.15625 80.171875 171.390625 80.769531 169.574219 81.308594 L 167.023438 65.539062 C 162.160156 66.328125 157.300781 67.382812 152.558594 68.695312 L 156.941406 84.554688 C 155.199219 85.046875 153.46875 85.585938 151.761719 86.171875 L 146.664062 70.460938 C 141.992188 71.976562 137.34375 73.773438 132.863281 75.804688 L 139.691406 90.953125 C 138.050781 91.707031 136.433594 92.503906 134.839844 93.335938 L 127.316406 78.464844 C 122.9375 80.679688 118.625 83.171875 114.503906 85.855469 L 123.664062 99.9375 C 122.160156 100.9375 120.691406 101.960938 119.230469 103.027344 L 109.402344 89.324219 C 105.40625 92.1875 101.53125 95.300781 97.871094 98.566406 L 109.191406 111.222656 C 107.867188 112.4375 106.5625 113.683594 105.28125 114.953125 L 93.367188 102.769531 C 89.851562 106.203125 86.496094 109.863281 83.375 113.660156 L 96.589844 124.554688 C 95.457031 125.945312 94.367188 127.382812 93.300781 128.832031 L 79.554688 118.5 C 76.601562 122.429688 73.828125 126.5625 71.324219 130.785156 L 86.203125 139.625 C 85.292969 141.171875 84.429688 142.746094 83.585938 144.339844 L 68.292969 136.175781 C 65.96875 140.523438 63.867188 145.027344 62.035156 149.597656 L 78.21875 156.097656 C 77.554688 157.761719 76.9375 159.457031 76.367188 161.164062 L 59.859375 155.378906 C 58.230469 160.015625 56.847656 164.800781 55.738281 169.597656 L 72.828125 173.558594 C 72.433594 175.300781 72.074219 177.054688 71.761719 178.828125 L 54.480469 175.636719 C 53.589844 180.46875 52.953125 185.398438 52.582031 190.304688 L 70.1875 191.617188 C 70.066406 193.390625 69.976562 195.1875 69.929688 196.984375 L 52.265625 196.445312 C 52.222656 197.828125 52.199219 199.210938 52.199219 200.601562 C 52.199219 204.128906 52.332031 207.699219 52.601562 211.214844 L 70.269531 209.855469 C 70.414062 211.652344 70.59375 213.425781 70.816406 215.199219 L 53.210938 217.355469 C 53.804688 222.242188 54.679688 227.136719 55.792969 231.921875 L 73.085938 227.878906 C 73.503906 229.621094 73.941406 231.359375 74.433594 233.066406 L 57.34375 237.894531 C 58.679688 242.625 60.296875 247.339844 62.136719 251.898438 L 78.621094 245.230469 C 79.296875 246.878906 79.992188 248.519531 80.734375 250.148438 L 64.574219 257.558594 C 66.617188 262.027344 68.929688 266.429688 71.457031 270.652344 L 86.71875 261.546875 C 87.640625 263.085938 88.582031 264.601562 89.5625 266.082031 L 74.726562 275.863281 C 77.421875 279.964844 80.386719 283.960938 83.519531 287.757812 L 97.1875 276.460938 C 98.320312 277.839844 99.488281 279.199219 100.6875 280.523438 L 87.550781 292.417969 C 90.851562 296.054688 94.378906 299.558594 98.050781 302.828125 L 109.808594 289.609375 C 111.144531 290.8125 112.503906 291.980469 113.882812 293.113281 L 102.746094 306.800781 C 106.550781 309.902344 110.582031 312.832031 114.703125 315.503906 L 124.273438 300.738281 C 125.777344 301.726562 127.292969 302.667969 128.832031 303.589844 L 119.949219 318.738281 C 124.195312 321.222656 128.617188 323.5 133.109375 325.523438 L 140.261719 309.574219 C 141.890625 310.316406 143.542969 311.023438 145.214844 311.699219 L 138.816406 327.925781 C 143.394531 329.734375 148.113281 331.304688 152.863281 332.597656 L 157.445312 315.863281 C 159.164062 316.347656 160.902344 316.796875 162.65625 317.199219 L 158.859375 334.089844 C 163.65625 335.167969 168.5625 336 173.449219 336.550781 L 175.390625 319.457031 C 177.164062 319.671875 178.960938 319.863281 180.757812 319.996094 L 179.589844 337.113281 C 182.722656 337.324219 185.902344 337.4375 189.058594 337.4375 C 190.832031 337.4375 192.617188 337.402344 194.367188 337.335938 L 193.71875 320.289062 C 195.523438 320.234375 197.320312 320.144531 199.109375 320.019531 L 200.511719 336.964844 C 205.417969 336.5625 210.347656 335.875 215.167969 334.945312 L 211.964844 318.359375 C 213.738281 318.03125 215.503906 317.660156 217.253906 317.257812 L 221.195312 333.628906 C 225.980469 332.484375 230.664062 331.082031 235.289062 329.40625 L 224.644531 307.847656 C 223.578125 308.183594 222.511719 308.507812 221.445312 308.8125 C 219.535156 309.40625 217.582031 309.835938 215.648438 310.339844 C 213.695312 310.742188 211.753906 311.214844 209.777344 311.519531 C 201.902344 312.910156 193.898438 313.460938 185.921875 313.148438 C 177.949219 312.867188 170 311.742188 162.261719 309.800781 C 131.257812 302.097656 104.046875 280.523438 89.660156 252.101562 C 82.40625 237.953125 78.230469 222.265625 77.476562 206.429688 C 77.386719 204.453125 77.386719 202.464844 77.34375 200.488281 C 77.375 198.511719 77.511719 196.535156 77.589844 194.558594 L 77.722656 191.59375 C 77.78125 190.605469 77.949219 189.628906 78.0625 188.640625 L 78.800781 182.757812 C 79.152344 180.816406 79.589844 178.882812 79.96875 176.941406 L 80.566406 174.03125 C 80.8125 173.078125 81.105469 172.132812 81.375 171.179688 L 83.035156 165.484375 L 85.113281 159.9375 C 85.472656 159.019531 85.765625 158.074219 86.191406 157.175781 L 88.707031 151.808594 C 89.132812 150.921875 89.515625 150.011719 90.03125 149.15625 L 92.941406 144.003906 L 93.671875 142.710938 L 94.492188 141.476562 L 96.128906 139.019531 C 98.21875 135.671875 100.769531 132.648438 103.171875 129.539062 C 104.441406 128.035156 105.800781 126.609375 107.113281 125.148438 L 109.101562 122.96875 L 111.246094 120.9375 C 116.792969 115.355469 123.171875 110.671875 129.742188 106.429688 L 134.804688 103.441406 C 136.5 102.464844 138.308594 101.679688 140.050781 100.792969 L 142.6875 99.5 C 143.574219 99.085938 144.496094 98.757812 145.40625 98.375 L 150.796875 96.230469 L 145.417969 98.566406 C 144.53125 98.972656 143.609375 99.320312 142.746094 99.769531 L 140.152344 101.140625 C 138.445312 102.082031 136.667969 102.914062 135.007812 103.9375 L 130.054688 107.046875 C 123.621094 111.414062 117.410156 116.199219 112.054688 121.847656 L 109.988281 123.902344 L 108.078125 126.101562 C 106.820312 127.585938 105.507812 129.011719 104.292969 130.527344 C 101.992188 133.660156 99.554688 136.683594 97.578125 140.027344 L 96.019531 142.476562 L 95.242188 143.699219 L 94.558594 144.980469 L 91.816406 150.101562 C 91.335938 150.945312 90.988281 151.84375 90.582031 152.730469 L 89.414062 155.390625 L 88.246094 158.039062 C 87.855469 158.929688 87.574219 159.859375 87.234375 160.757812 L 85.28125 166.214844 L 83.742188 171.808594 C 83.496094 172.742188 83.226562 173.671875 82.992188 174.605469 L 82.453125 177.457031 C 82.105469 179.355469 81.699219 181.253906 81.398438 183.152344 L 80.757812 188.910156 C 80.667969 189.878906 80.507812 190.832031 80.476562 191.796875 L 80.386719 194.695312 C 80.339844 196.625 80.238281 198.558594 80.230469 200.476562 C 80.308594 202.410156 80.328125 204.339844 80.453125 206.261719 C 81.429688 221.65625 85.71875 236.796875 92.941406 250.371094 C 96.546875 257.15625 100.847656 263.566406 105.765625 269.472656 C 110.695312 275.359375 116.242188 280.726562 122.285156 285.453125 C 134.355469 294.910156 148.417969 301.851562 163.316406 305.445312 C 170.761719 307.261719 178.386719 308.273438 186.046875 308.488281 C 193.707031 308.734375 201.375 308.160156 208.898438 306.769531 C 210.785156 306.464844 212.640625 305.992188 214.515625 305.601562 C 216.355469 305.105469 218.230469 304.679688 220.050781 304.105469 C 220.667969 303.925781 221.285156 303.738281 221.894531 303.546875 C 221.5 302.882812 221.105469 302.21875 220.726562 301.546875 C 213.46875 302.332031 206.136719 302.445312 198.816406 301.613281 C 192.460938 300.871094 186.125 299.378906 180.152344 296.886719 C 174.1875 294.394531 168.527344 291.003906 163.777344 286.554688 C 159.027344 282.128906 154.996094 276.863281 152.269531 270.980469 C 149.503906 265.117188 147.808594 258.785156 147.28125 252.382812 C 146.71875 245.980469 147.167969 239.546875 148.449219 233.304688 L 149.539062 228.710938 C 149.652344 228.035156 149.855469 227.375 149.84375 226.675781 L 149.898438 225.644531 L 149.820312 224.601562 C 149.585938 221.804688 148.449219 219.019531 147.046875 216.367188 C 144.214844 211.023438 140.433594 206.027344 137.164062 200.679688 C 135.523438 198.007812 133.976562 195.257812 132.617188 192.414062 C 131.257812 189.574219 130.144531 186.585938 129.324219 183.519531 C 128.484375 180.46875 128.035156 177.3125 127.957031 174.15625 C 127.867188 172.574219 128 171 128.078125 169.429688 C 128.15625 168.640625 128.28125 167.867188 128.382812 167.082031 L 128.539062 165.914062 L 128.785156 164.757812 C 130.054688 158.589844 132.628906 152.808594 135.828125 147.484375 C 132.886719 152.964844 130.695312 158.847656 129.671875 164.925781 L 129.472656 166.058594 L 129.359375 167.203125 C 129.292969 167.96875 129.191406 168.730469 129.15625 169.496094 C 129.144531 171.035156 129.066406 172.5625 129.222656 174.089844 C 129.414062 177.144531 129.976562 180.164062 130.898438 183.070312 C 132.671875 188.921875 135.726562 194.300781 139.152344 199.410156 C 142.53125 204.566406 146.40625 209.441406 149.5625 215.011719 C 151.113281 217.792969 152.492188 220.847656 152.886719 224.261719 L 153.019531 225.542969 C 153.019531 225.96875 153.007812 226.40625 152.996094 226.847656 C 153.019531 227.710938 152.816406 228.5625 152.671875 229.429688 L 151.730469 233.933594 C 150.664062 239.90625 150.394531 246.003906 151.066406 251.976562 C 152.378906 263.914062 157.894531 275.3125 166.8125 283.1875 C 171.203125 287.183594 176.421875 290.214844 181.949219 292.429688 C 187.496094 294.628906 193.378906 296.011719 199.367188 296.652344 C 205.542969 297.3125 211.785156 297.257812 218.007812 296.660156 C 200.78125 264.253906 196.332031 232.078125 195.199219 216.425781 C 155.546875 197.671875 163.25 167.472656 163.25 167.472656 C 165.496094 199.917969 194.828125 208.5625 194.828125 208.5625 C 198.589844 210.125 202.65625 211.125 206.902344 211.449219 L 206.824219 211.574219 C 206.824219 211.574219 243.398438 210.359375 261.332031 238.121094 C 279.265625 265.882812 288.519531 263.566406 294.59375 260.390625 C 294.59375 260.390625 313.203125 262.320312 313.011719 242.265625 L 313 242.140625 C 320.34375 239.222656 324.410156 229.125 322.1875 218.355469 " clip-rule="nonzero"/></clipPath><clipPath id="df9be2b8e5"><path d="M 0.199219 0.441406 L 270.800781 0.441406 L 270.800781 300.441406 L 0.199219 300.441406 Z M 0.199219 0.441406 " clip-rule="nonzero"/></clipPath><clipPath id="f89a9cff6f"><path d="M 257.933594 194.160156 C 253.332031 197.011719 249.78125 185.253906 256.621094 178.617188 C 254.21875 186.714844 261.707031 191.8125 257.933594 194.160156 M 186.378906 111.527344 C 182.109375 111.527344 178.640625 108.058594 178.640625 103.792969 C 178.640625 99.523438 182.101562 96.054688 186.378906 96.054688 C 190.65625 96.054688 194.117188 99.511719 194.117188 103.792969 C 194.117188 108.070312 190.65625 111.527344 186.378906 111.527344 M 166.589844 49.519531 C 149.320312 45.800781 174.566406 14.660156 174.566406 14.660156 C 174.566406 14.660156 181.953125 52.832031 166.589844 49.519531 M 133.476562 182.402344 C 133.476562 182.402344 110.65625 178.03125 105.03125 154.945312 C 105.03125 154.945312 110.519531 172.910156 133.476562 182.402344 M 270.199219 181.378906 C 268.546875 173.382812 263.875 167.09375 258.351562 164.464844 L 210.949219 90.28125 C 210.578125 80.523438 204.660156 72.011719 196.035156 68.082031 L 189.589844 58.613281 C 200.125 50.527344 199.28125 24.835938 198.4375 14.222656 C 198.214844 11.394531 196.40625 8.957031 193.765625 7.910156 C 190.746094 6.722656 187.308594 7.640625 185.289062 10.179688 C 184.714844 10.898438 184.078125 11.683594 183.414062 12.503906 C 184.199219 22.21875 182.761719 34.90625 182.761719 34.90625 C 182.257812 26.171875 180.695312 15.726562 180.695312 15.726562 C 180.203125 12.089844 179.617188 8.855469 179.125 6.429688 C 178.5625 3.65625 176.472656 1.441406 173.734375 0.722656 C 170.589844 -0.09375 167.289062 1.230469 165.582031 3.992188 C 161.929688 9.898438 156.125 18.871094 147.230469 27.148438 C 145.5 27.023438 143.761719 26.914062 142.042969 26.855469 L 141.863281 31.730469 C 140.011719 33.179688 138.046875 34.570312 135.957031 35.90625 L 135.878906 26.777344 C 130.960938 26.824219 125.996094 27.125 121.132812 27.6875 L 122.851562 42.523438 C 121.15625 43.171875 119.390625 43.769531 117.574219 44.308594 L 115.023438 28.539062 C 110.160156 29.328125 105.300781 30.382812 100.558594 31.695312 L 104.941406 47.554688 C 103.199219 48.046875 101.46875 48.585938 99.761719 49.171875 L 94.664062 33.460938 C 89.992188 34.976562 85.34375 36.773438 80.863281 38.804688 L 87.691406 53.953125 C 86.050781 54.707031 84.433594 55.503906 82.839844 56.335938 L 75.316406 41.464844 C 70.9375 43.679688 66.625 46.171875 62.503906 48.855469 L 71.664062 62.9375 C 70.160156 63.9375 68.691406 64.960938 67.230469 66.027344 L 57.402344 52.324219 C 53.40625 55.1875 49.53125 58.300781 45.871094 61.566406 L 57.191406 74.222656 C 55.867188 75.4375 54.5625 76.683594 53.28125 77.953125 L 41.367188 65.769531 C 37.851562 69.203125 34.496094 72.863281 31.375 76.660156 L 44.589844 87.554688 C 43.457031 88.945312 42.367188 90.382812 41.300781 91.832031 L 27.554688 81.5 C 24.601562 85.429688 21.828125 89.5625 19.324219 93.785156 L 34.203125 102.625 C 33.292969 104.171875 32.429688 105.746094 31.585938 107.339844 L 16.292969 99.175781 C 13.96875 103.523438 11.867188 108.027344 10.035156 112.597656 L 26.21875 119.097656 C 25.554688 120.761719 24.9375 122.457031 24.367188 124.164062 L 7.859375 118.378906 C 6.230469 123.015625 4.847656 127.800781 3.738281 132.597656 L 20.828125 136.558594 C 20.433594 138.300781 20.074219 140.054688 19.761719 141.828125 L 2.480469 138.636719 C 1.589844 143.46875 0.953125 148.398438 0.582031 153.304688 L 18.1875 154.617188 C 18.066406 156.390625 17.976562 158.1875 17.929688 159.984375 L 0.265625 159.445312 C 0.222656 160.828125 0.199219 162.210938 0.199219 163.601562 C 0.199219 167.128906 0.332031 170.699219 0.601562 174.214844 L 18.269531 172.855469 C 18.414062 174.652344 18.59375 176.425781 18.816406 178.199219 L 1.210938 180.355469 C 1.804688 185.242188 2.679688 190.136719 3.792969 194.921875 L 21.085938 190.878906 C 21.503906 192.621094 21.941406 194.359375 22.433594 196.066406 L 5.34375 200.894531 C 6.679688 205.625 8.296875 210.339844 10.136719 214.898438 L 26.621094 208.230469 C 27.296875 209.878906 27.992188 211.519531 28.734375 213.148438 L 12.574219 220.558594 C 14.617188 225.027344 16.929688 229.429688 19.457031 233.652344 L 34.71875 224.546875 C 35.640625 226.085938 36.582031 227.601562 37.5625 229.082031 L 22.726562 238.863281 C 25.421875 242.964844 28.386719 246.960938 31.519531 250.757812 L 45.1875 239.460938 C 46.320312 240.839844 47.488281 242.199219 48.6875 243.523438 L 35.550781 255.417969 C 38.851562 259.054688 42.378906 262.558594 46.050781 265.828125 L 57.808594 252.609375 C 59.144531 253.8125 60.503906 254.980469 61.882812 256.113281 L 50.746094 269.800781 C 54.550781 272.902344 58.582031 275.832031 62.703125 278.503906 L 72.273438 263.738281 C 73.777344 264.726562 75.292969 265.667969 76.832031 266.589844 L 67.949219 281.738281 C 72.195312 284.222656 76.617188 286.5 81.109375 288.523438 L 88.261719 272.574219 C 89.890625 273.316406 91.542969 274.023438 93.214844 274.699219 L 86.816406 290.925781 C 91.394531 292.734375 96.113281 294.304688 100.863281 295.597656 L 105.445312 278.863281 C 107.164062 279.347656 108.902344 279.796875 110.65625 280.199219 L 106.859375 297.089844 C 111.65625 298.167969 116.5625 299 121.449219 299.550781 L 123.390625 282.457031 C 125.164062 282.671875 126.960938 282.863281 128.757812 282.996094 L 127.589844 300.113281 C 130.722656 300.324219 133.902344 300.4375 137.058594 300.4375 C 138.832031 300.4375 140.617188 300.402344 142.367188 300.335938 L 141.71875 283.289062 C 143.523438 283.234375 145.320312 283.144531 147.109375 283.019531 L 148.511719 299.964844 C 153.417969 299.5625 158.347656 298.875 163.167969 297.945312 L 159.964844 281.359375 C 161.738281 281.03125 163.503906 280.660156 165.253906 280.257812 L 169.195312 296.628906 C 173.980469 295.484375 178.664062 294.082031 183.289062 292.40625 L 172.644531 270.847656 C 171.578125 271.183594 170.511719 271.507812 169.445312 271.8125 C 167.535156 272.40625 165.582031 272.835938 163.648438 273.339844 C 161.695312 273.742188 159.753906 274.214844 157.777344 274.519531 C 149.902344 275.910156 141.898438 276.460938 133.921875 276.148438 C 125.949219 275.867188 118 274.742188 110.261719 272.800781 C 79.257812 265.097656 52.046875 243.523438 37.660156 215.101562 C 30.40625 200.953125 26.230469 185.265625 25.476562 169.429688 C 25.386719 167.453125 25.386719 165.464844 25.34375 163.488281 C 25.375 161.511719 25.511719 159.535156 25.589844 157.558594 L 25.722656 154.59375 C 25.78125 153.605469 25.949219 152.628906 26.0625 151.640625 L 26.800781 145.757812 C 27.152344 143.816406 27.589844 141.882812 27.96875 139.941406 L 28.566406 137.03125 C 28.8125 136.078125 29.105469 135.132812 29.375 134.179688 L 31.035156 128.484375 L 33.113281 122.9375 C 33.472656 122.019531 33.765625 121.074219 34.191406 120.175781 L 36.707031 114.808594 C 37.132812 113.921875 37.515625 113.011719 38.03125 112.15625 L 40.941406 107.003906 L 41.671875 105.710938 L 42.492188 104.476562 L 44.128906 102.019531 C 46.21875 98.671875 48.769531 95.648438 51.171875 92.539062 C 52.441406 91.035156 53.800781 89.609375 55.113281 88.148438 L 57.101562 85.96875 L 59.246094 83.9375 C 64.792969 78.355469 71.171875 73.671875 77.742188 69.429688 L 82.804688 66.441406 C 84.5 65.464844 86.308594 64.679688 88.050781 63.792969 L 90.6875 62.5 C 91.574219 62.085938 92.496094 61.757812 93.40625 61.375 L 98.796875 59.230469 L 93.417969 61.566406 C 92.53125 61.972656 91.609375 62.320312 90.746094 62.769531 L 88.152344 64.140625 C 86.445312 65.082031 84.667969 65.914062 83.007812 66.9375 L 78.054688 70.046875 C 71.621094 74.414062 65.410156 79.199219 60.054688 84.847656 L 57.988281 86.902344 L 56.078125 89.101562 C 54.820312 90.585938 53.507812 92.011719 52.292969 93.527344 C 49.992188 96.660156 47.554688 99.683594 45.578125 103.027344 L 44.019531 105.476562 L 43.242188 106.699219 L 42.558594 107.980469 L 39.816406 113.101562 C 39.335938 113.945312 38.988281 114.84375 38.582031 115.730469 L 37.414062 118.390625 L 36.246094 121.039062 C 35.855469 121.929688 35.574219 122.859375 35.234375 123.757812 L 33.28125 129.214844 L 31.742188 134.808594 C 31.496094 135.742188 31.226562 136.671875 30.992188 137.605469 L 30.453125 140.457031 C 30.105469 142.355469 29.699219 144.253906 29.398438 146.152344 L 28.757812 151.910156 C 28.667969 152.878906 28.507812 153.832031 28.476562 154.796875 L 28.386719 157.695312 C 28.339844 159.625 28.238281 161.558594 28.230469 163.476562 C 28.308594 165.410156 28.328125 167.339844 28.453125 169.261719 C 29.429688 184.65625 33.71875 199.796875 40.941406 213.371094 C 44.546875 220.15625 48.847656 226.566406 53.765625 232.472656 C 58.695312 238.359375 64.242188 243.726562 70.285156 248.453125 C 82.355469 257.910156 96.417969 264.851562 111.316406 268.445312 C 118.761719 270.261719 126.386719 271.273438 134.046875 271.488281 C 141.707031 271.734375 149.375 271.160156 156.898438 269.769531 C 158.785156 269.464844 160.640625 268.992188 162.515625 268.601562 C 164.355469 268.105469 166.230469 267.679688 168.050781 267.105469 C 168.667969 266.925781 169.285156 266.738281 169.894531 266.546875 C 169.5 265.882812 169.105469 265.21875 168.726562 264.546875 C 161.46875 265.332031 154.136719 265.445312 146.816406 264.613281 C 140.460938 263.871094 134.125 262.378906 128.152344 259.886719 C 122.1875 257.394531 116.527344 254.003906 111.777344 249.554688 C 107.027344 245.128906 102.996094 239.863281 100.269531 233.980469 C 97.503906 228.117188 95.808594 221.785156 95.28125 215.382812 C 94.71875 208.980469 95.167969 202.546875 96.449219 196.304688 L 97.539062 191.710938 C 97.652344 191.035156 97.855469 190.375 97.84375 189.675781 L 97.898438 188.644531 L 97.820312 187.601562 C 97.585938 184.804688 96.449219 182.019531 95.046875 179.367188 C 92.214844 174.023438 88.433594 169.027344 85.164062 163.679688 C 83.523438 161.007812 81.976562 158.257812 80.617188 155.414062 C 79.257812 152.574219 78.144531 149.585938 77.324219 146.519531 C 76.484375 143.46875 76.035156 140.3125 75.957031 137.15625 C 75.867188 135.574219 76 134 76.078125 132.429688 C 76.15625 131.640625 76.28125 130.867188 76.382812 130.082031 L 76.539062 128.914062 L 76.785156 127.757812 C 78.054688 121.589844 80.628906 115.808594 83.828125 110.484375 C 80.886719 115.964844 78.695312 121.847656 77.671875 127.925781 L 77.472656 129.058594 L 77.359375 130.203125 C 77.292969 130.96875 77.191406 131.730469 77.15625 132.496094 C 77.144531 134.035156 77.066406 135.5625 77.222656 137.089844 C 77.414062 140.144531 77.976562 143.164062 78.898438 146.070312 C 80.671875 151.921875 83.726562 157.300781 87.152344 162.410156 C 90.53125 167.566406 94.40625 172.441406 97.5625 178.011719 C 99.113281 180.792969 100.492188 183.847656 100.886719 187.261719 L 101.019531 188.542969 C 101.019531 188.96875 101.007812 189.40625 100.996094 189.847656 C 101.019531 190.710938 100.816406 191.5625 100.671875 192.429688 L 99.730469 196.933594 C 98.664062 202.90625 98.394531 209.003906 99.066406 214.976562 C 100.378906 226.914062 105.894531 238.3125 114.8125 246.1875 C 119.203125 250.183594 124.421875 253.214844 129.949219 255.429688 C 135.496094 257.628906 141.378906 259.011719 147.367188 259.652344 C 153.542969 260.3125 159.785156 260.257812 166.007812 259.660156 C 148.78125 227.253906 144.332031 195.078125 143.199219 179.425781 C 103.546875 160.671875 111.25 130.472656 111.25 130.472656 C 113.496094 162.917969 142.828125 171.5625 142.828125 171.5625 C 146.589844 173.125 150.65625 174.125 154.902344 174.449219 L 154.824219 174.574219 C 154.824219 174.574219 191.398438 173.359375 209.332031 201.121094 C 227.265625 228.882812 236.519531 226.566406 242.59375 223.390625 C 242.59375 223.390625 261.203125 225.320312 261.011719 205.265625 L 261 205.140625 C 268.34375 202.222656 272.410156 192.125 270.1875 181.355469 " clip-rule="nonzero"/></clipPath><clipPath id="61a0a8a760"><rect x="0" width="271" y="0" height="301"/></clipPath></defs><g clip-path="url(#a7bc461079)"><g clip-path="url(#efad84cc74)"><g transform="matrix(1, 0, 0, 1, 52, 37)"><g clip-path="url(#61a0a8a760)"><g clip-path="url(#df9be2b8e5)"><g clip-path="url(#f89a9cff6f)"><path fill="#ffffff" d="M 0.199219 0.5 L 270.800781 0.5 L 270.800781 300.699219 L 0.199219 300.699219 Z M 0.199219 0.5 " fill-opacity="1" fill-rule="nonzero"/></g></g></g></g></g></g></svg>