<svg xmlns="http://www.w3.org/2000/svg" xmlns:xlink="http://www.w3.org/1999/xlink" width="40" zoomAndPan="magnify" viewBox="0 0 30 30.000001" height="40" preserveAspectRatio="xMidYMid meet" version="1.0"><defs><clipPath id="7e5c1dfc86"><path d="M 1.054688 0.742188 L 28.832031 0.742188 L 28.832031 28.519531 L 1.054688 28.519531 Z M 1.054688 0.742188 " clip-rule="nonzero"/></clipPath><clipPath id="b9d0755098"><path d="M 14.941406 0.742188 C 7.269531 0.742188 1.054688 6.960938 1.054688 14.632812 C 1.054688 22.304688 7.269531 28.519531 14.941406 28.519531 C 22.613281 28.519531 28.832031 22.304688 28.832031 14.632812 C 28.832031 6.960938 22.613281 0.742188 14.941406 0.742188 Z M 14.941406 0.742188 " clip-rule="nonzero"/></clipPath><clipPath id="046ebfbff5"><path d="M 0.0546875 0.742188 L 27.832031 0.742188 L 27.832031 28.519531 L 0.0546875 28.519531 Z M 0.0546875 0.742188 " clip-rule="nonzero"/></clipPath><clipPath id="3fb5cc01ef"><path d="M 13.941406 0.742188 C 6.269531 0.742188 0.0546875 6.960938 0.0546875 14.632812 C 0.0546875 22.304688 6.269531 28.519531 13.941406 28.519531 C 21.613281 28.519531 27.832031 22.304688 27.832031 14.632812 C 27.832031 6.960938 21.613281 0.742188 13.941406 0.742188 Z M 13.941406 0.742188 " clip-rule="nonzero"/></clipPath><clipPath id="d21d0f1f4e"><rect x="0" width="28" y="0" height="29"/></clipPath><clipPath id="76e01dcbd2"><path d="M 4.859375 3.261719 L 25.023438 3.261719 L 25.023438 25.710938 L 4.859375 25.710938 Z M 4.859375 3.261719 " clip-rule="nonzero"/></clipPath><clipPath id="3900a44e4c"><path d="M 24.0625 17.769531 C 23.722656 17.984375 23.457031 17.109375 23.964844 16.613281 C 23.789062 17.214844 24.34375 17.597656 24.0625 17.769531 M 18.734375 11.613281 C 18.414062 11.613281 18.15625 11.355469 18.15625 11.039062 C 18.15625 10.71875 18.414062 10.460938 18.734375 10.460938 C 19.050781 10.460938 19.308594 10.71875 19.308594 11.039062 C 19.308594 11.355469 19.050781 11.613281 18.734375 11.613281 M 17.257812 6.996094 C 15.972656 6.71875 17.851562 4.398438 17.851562 4.398438 C 17.851562 4.398438 18.402344 7.242188 17.257812 6.996094 M 14.792969 16.894531 C 14.792969 16.894531 13.089844 16.570312 12.671875 14.847656 C 12.671875 14.847656 13.082031 16.1875 14.792969 16.894531 M 24.976562 16.820312 C 24.855469 16.222656 24.507812 15.753906 24.09375 15.558594 L 20.5625 10.03125 C 20.535156 9.304688 20.09375 8.671875 19.453125 8.378906 L 18.972656 7.671875 C 19.757812 7.070312 19.695312 5.15625 19.632812 4.363281 C 19.613281 4.152344 19.480469 3.972656 19.285156 3.894531 C 19.058594 3.804688 18.800781 3.875 18.652344 4.0625 C 18.609375 4.117188 18.5625 4.175781 18.511719 4.238281 C 18.570312 4.960938 18.464844 5.90625 18.464844 5.90625 C 18.425781 5.253906 18.308594 4.476562 18.308594 4.476562 C 18.273438 4.207031 18.230469 3.964844 18.191406 3.785156 C 18.152344 3.578125 17.996094 3.414062 17.789062 3.359375 C 17.554688 3.296875 17.308594 3.398438 17.183594 3.601562 C 16.910156 4.042969 16.480469 4.710938 15.816406 5.328125 C 15.6875 5.320312 15.558594 5.308594 15.429688 5.304688 L 15.417969 5.667969 C 15.277344 5.777344 15.132812 5.878906 14.976562 5.980469 L 14.96875 5.300781 C 14.605469 5.304688 14.234375 5.324219 13.871094 5.367188 L 14 6.472656 C 13.875 6.523438 13.742188 6.566406 13.605469 6.605469 L 13.417969 5.429688 C 13.054688 5.488281 12.691406 5.570312 12.339844 5.667969 L 12.664062 6.847656 C 12.535156 6.886719 12.40625 6.925781 12.277344 6.96875 L 11.898438 5.796875 C 11.550781 5.910156 11.203125 6.042969 10.871094 6.195312 L 11.378906 7.324219 C 11.257812 7.382812 11.136719 7.441406 11.019531 7.503906 L 10.457031 6.394531 C 10.132812 6.558594 9.808594 6.746094 9.503906 6.945312 L 10.1875 7.996094 C 10.074219 8.070312 9.964844 8.144531 9.855469 8.222656 L 9.125 7.203125 C 8.824219 7.417969 8.535156 7.648438 8.265625 7.890625 L 9.105469 8.835938 C 9.007812 8.925781 8.910156 9.019531 8.816406 9.113281 L 7.929688 8.207031 C 7.667969 8.460938 7.417969 8.734375 7.183594 9.015625 L 8.167969 9.828125 C 8.082031 9.933594 8.003906 10.039062 7.921875 10.148438 L 6.898438 9.378906 C 6.679688 9.671875 6.472656 9.976562 6.285156 10.292969 L 7.394531 10.953125 C 7.328125 11.066406 7.261719 11.183594 7.199219 11.300781 L 6.058594 10.695312 C 5.886719 11.019531 5.730469 11.355469 5.59375 11.695312 L 6.800781 12.179688 C 6.75 12.300781 6.703125 12.429688 6.660156 12.554688 L 5.429688 12.125 C 5.308594 12.472656 5.207031 12.828125 5.125 13.183594 L 6.398438 13.480469 C 6.367188 13.609375 6.34375 13.738281 6.320312 13.871094 L 5.03125 13.632812 C 4.964844 13.996094 4.917969 14.363281 4.890625 14.726562 L 6.203125 14.824219 C 6.191406 14.957031 6.183594 15.089844 6.183594 15.226562 L 4.867188 15.183594 C 4.863281 15.289062 4.859375 15.390625 4.859375 15.496094 C 4.859375 15.757812 4.871094 16.023438 4.890625 16.285156 L 6.207031 16.183594 C 6.21875 16.316406 6.230469 16.449219 6.25 16.582031 L 4.9375 16.742188 C 4.980469 17.105469 5.046875 17.472656 5.128906 17.828125 L 6.417969 17.527344 C 6.449219 17.65625 6.480469 17.785156 6.519531 17.914062 L 5.246094 18.273438 C 5.34375 18.625 5.464844 18.976562 5.601562 19.316406 L 6.828125 18.820312 C 6.878906 18.941406 6.933594 19.066406 6.988281 19.1875 L 5.78125 19.738281 C 5.933594 20.070312 6.109375 20.398438 6.296875 20.714844 L 7.433594 20.035156 C 7.5 20.148438 7.570312 20.261719 7.644531 20.375 L 6.539062 21.101562 C 6.738281 21.40625 6.960938 21.707031 7.195312 21.988281 L 8.210938 21.148438 C 8.296875 21.25 8.382812 21.351562 8.472656 21.449219 L 7.496094 22.335938 C 7.742188 22.605469 8.003906 22.867188 8.277344 23.109375 L 9.152344 22.125 C 9.253906 22.214844 9.355469 22.304688 9.457031 22.386719 L 8.628906 23.40625 C 8.910156 23.636719 9.210938 23.855469 9.519531 24.054688 L 10.230469 22.957031 C 10.34375 23.027344 10.457031 23.097656 10.570312 23.167969 L 9.910156 24.296875 C 10.226562 24.480469 10.554688 24.652344 10.890625 24.800781 L 11.421875 23.613281 C 11.542969 23.667969 11.667969 23.722656 11.792969 23.773438 L 11.316406 24.980469 C 11.65625 25.117188 12.007812 25.234375 12.359375 25.328125 L 12.703125 24.082031 C 12.832031 24.117188 12.960938 24.152344 13.089844 24.183594 L 12.808594 25.441406 C 13.164062 25.519531 13.53125 25.582031 13.894531 25.625 L 14.039062 24.351562 C 14.171875 24.367188 14.304688 24.378906 14.441406 24.390625 L 14.351562 25.664062 C 14.585938 25.679688 14.824219 25.691406 15.058594 25.691406 C 15.191406 25.691406 15.324219 25.6875 15.453125 25.683594 L 15.40625 24.414062 C 15.539062 24.40625 15.671875 24.402344 15.808594 24.390625 L 15.910156 25.65625 C 16.277344 25.625 16.644531 25.574219 17.003906 25.503906 L 16.765625 24.269531 C 16.898438 24.242188 17.027344 24.214844 17.160156 24.1875 L 17.453125 25.40625 C 17.808594 25.320312 18.15625 25.214844 18.503906 25.089844 L 17.710938 23.484375 C 17.628906 23.511719 17.550781 23.535156 17.472656 23.558594 C 17.328125 23.601562 17.183594 23.632812 17.039062 23.671875 C 16.894531 23.699219 16.75 23.734375 16.601562 23.757812 C 16.015625 23.863281 15.417969 23.902344 14.824219 23.878906 C 14.230469 23.859375 13.636719 23.777344 13.0625 23.628906 C 10.75 23.058594 8.722656 21.449219 7.652344 19.332031 C 7.113281 18.277344 6.800781 17.109375 6.746094 15.929688 C 6.738281 15.78125 6.738281 15.632812 6.734375 15.484375 C 6.738281 15.339844 6.746094 15.191406 6.753906 15.042969 L 6.761719 14.824219 C 6.765625 14.75 6.78125 14.675781 6.789062 14.601562 L 6.84375 14.164062 C 6.867188 14.019531 6.902344 13.875 6.929688 13.730469 L 6.972656 13.515625 C 6.992188 13.445312 7.015625 13.375 7.035156 13.300781 L 7.160156 12.878906 L 7.3125 12.464844 C 7.339844 12.394531 7.363281 12.324219 7.394531 12.257812 L 7.582031 11.859375 C 7.613281 11.792969 7.640625 11.726562 7.679688 11.660156 L 7.898438 11.277344 L 7.949219 11.179688 L 8.011719 11.089844 L 8.132812 10.90625 C 8.289062 10.65625 8.480469 10.433594 8.660156 10.199219 C 8.753906 10.085938 8.855469 9.980469 8.953125 9.871094 L 9.101562 9.710938 L 9.261719 9.558594 C 9.671875 9.144531 10.148438 8.792969 10.636719 8.476562 L 11.015625 8.253906 C 11.140625 8.183594 11.277344 8.125 11.40625 8.058594 L 11.601562 7.960938 C 11.667969 7.929688 11.738281 7.90625 11.804688 7.878906 L 12.207031 7.71875 L 11.804688 7.890625 C 11.742188 7.921875 11.671875 7.949219 11.605469 7.980469 L 11.414062 8.082031 C 11.285156 8.152344 11.15625 8.214844 11.03125 8.292969 L 10.660156 8.523438 C 10.183594 8.847656 9.71875 9.207031 9.320312 9.625 L 9.167969 9.78125 L 9.023438 9.945312 C 8.929688 10.054688 8.832031 10.160156 8.742188 10.273438 C 8.570312 10.507812 8.390625 10.730469 8.242188 10.980469 L 8.125 11.164062 L 8.066406 11.253906 L 8.015625 11.351562 L 7.8125 11.730469 C 7.777344 11.792969 7.75 11.863281 7.722656 11.925781 L 7.632812 12.125 L 7.546875 12.324219 C 7.515625 12.390625 7.496094 12.460938 7.472656 12.527344 L 7.324219 12.933594 L 7.210938 13.347656 C 7.191406 13.417969 7.171875 13.488281 7.15625 13.558594 L 7.113281 13.769531 C 7.089844 13.910156 7.058594 14.054688 7.035156 14.195312 L 6.988281 14.625 C 6.980469 14.695312 6.96875 14.765625 6.96875 14.839844 L 6.960938 15.054688 C 6.957031 15.199219 6.949219 15.34375 6.949219 15.484375 C 6.957031 15.628906 6.957031 15.773438 6.964844 15.917969 C 7.039062 17.0625 7.359375 18.191406 7.898438 19.203125 C 8.164062 19.707031 8.484375 20.1875 8.851562 20.625 C 9.21875 21.066406 9.632812 21.464844 10.082031 21.816406 C 10.980469 22.519531 12.03125 23.039062 13.140625 23.304688 C 13.695312 23.441406 14.261719 23.515625 14.832031 23.53125 C 15.40625 23.550781 15.976562 23.507812 16.535156 23.40625 C 16.675781 23.382812 16.816406 23.347656 16.953125 23.316406 C 17.09375 23.28125 17.230469 23.25 17.367188 23.207031 C 17.414062 23.191406 17.460938 23.179688 17.503906 23.164062 C 17.476562 23.117188 17.445312 23.066406 17.417969 23.015625 C 16.875 23.074219 16.332031 23.082031 15.785156 23.019531 C 15.3125 22.964844 14.839844 22.855469 14.394531 22.667969 C 13.949219 22.484375 13.527344 22.230469 13.175781 21.898438 C 12.820312 21.570312 12.519531 21.175781 12.316406 20.738281 C 12.109375 20.300781 11.984375 19.828125 11.945312 19.351562 C 11.902344 18.875 11.9375 18.394531 12.03125 17.929688 L 12.113281 17.589844 C 12.121094 17.539062 12.136719 17.488281 12.136719 17.4375 L 12.140625 17.359375 L 12.132812 17.28125 C 12.117188 17.074219 12.03125 16.867188 11.929688 16.667969 C 11.71875 16.269531 11.433594 15.898438 11.191406 15.5 C 11.070312 15.300781 10.953125 15.097656 10.851562 14.882812 C 10.75 14.671875 10.667969 14.449219 10.609375 14.222656 C 10.542969 13.996094 10.511719 13.757812 10.503906 13.523438 C 10.5 13.40625 10.507812 13.289062 10.515625 13.171875 C 10.519531 13.113281 10.53125 13.054688 10.539062 12.996094 L 10.550781 12.910156 L 10.566406 12.824219 C 10.660156 12.363281 10.851562 11.933594 11.09375 11.535156 C 10.871094 11.945312 10.710938 12.382812 10.632812 12.835938 L 10.617188 12.921875 L 10.609375 13.007812 C 10.605469 13.0625 10.597656 13.121094 10.59375 13.175781 C 10.59375 13.292969 10.589844 13.40625 10.601562 13.519531 C 10.613281 13.746094 10.65625 13.972656 10.726562 14.1875 C 10.855469 14.625 11.085938 15.023438 11.339844 15.40625 C 11.589844 15.789062 11.878906 16.152344 12.113281 16.566406 C 12.230469 16.777344 12.332031 17.003906 12.363281 17.257812 L 12.371094 17.351562 C 12.371094 17.382812 12.371094 17.417969 12.371094 17.449219 C 12.371094 17.515625 12.359375 17.578125 12.347656 17.640625 L 12.277344 17.976562 C 12.195312 18.421875 12.175781 18.878906 12.226562 19.324219 C 12.324219 20.210938 12.734375 21.0625 13.402344 21.648438 C 13.726562 21.945312 14.117188 22.171875 14.527344 22.335938 C 14.941406 22.5 15.378906 22.601562 15.824219 22.652344 C 16.285156 22.699219 16.75 22.695312 17.214844 22.652344 C 15.929688 20.238281 15.601562 17.839844 15.515625 16.671875 C 12.5625 15.277344 13.136719 13.027344 13.136719 13.027344 C 13.300781 15.445312 15.488281 16.085938 15.488281 16.085938 C 15.769531 16.203125 16.070312 16.277344 16.386719 16.304688 L 16.382812 16.3125 C 16.382812 16.3125 19.105469 16.222656 20.441406 18.289062 C 21.777344 20.359375 22.46875 20.1875 22.921875 19.949219 C 22.921875 19.949219 24.308594 20.09375 24.292969 18.597656 L 24.292969 18.589844 C 24.839844 18.371094 25.144531 17.621094 24.976562 16.816406 " clip-rule="nonzero"/></clipPath><clipPath id="805b4fccf4"><path d="M 0.859375 0.261719 L 21.023438 0.261719 L 21.023438 22.710938 L 0.859375 22.710938 Z M 0.859375 0.261719 " clip-rule="nonzero"/></clipPath><clipPath id="fab517ffd2"><path d="M 20.0625 14.769531 C 19.722656 14.984375 19.457031 14.109375 19.964844 13.613281 C 19.789062 14.214844 20.34375 14.597656 20.0625 14.769531 M 14.734375 8.613281 C 14.414062 8.613281 14.15625 8.355469 14.15625 8.039062 C 14.15625 7.71875 14.414062 7.460938 14.734375 7.460938 C 15.050781 7.460938 15.308594 7.71875 15.308594 8.039062 C 15.308594 8.355469 15.050781 8.613281 14.734375 8.613281 M 13.257812 3.996094 C 11.972656 3.71875 13.851562 1.398438 13.851562 1.398438 C 13.851562 1.398438 14.402344 4.242188 13.257812 3.996094 M 10.792969 13.894531 C 10.792969 13.894531 9.089844 13.570312 8.671875 11.847656 C 8.671875 11.847656 9.082031 13.1875 10.792969 13.894531 M 20.976562 13.820312 C 20.855469 13.222656 20.507812 12.753906 20.09375 12.558594 L 16.5625 7.03125 C 16.535156 6.304688 16.09375 5.671875 15.453125 5.378906 L 14.972656 4.671875 C 15.757812 4.070312 15.695312 2.15625 15.632812 1.363281 C 15.613281 1.152344 15.480469 0.972656 15.285156 0.894531 C 15.058594 0.804688 14.800781 0.875 14.652344 1.0625 C 14.609375 1.117188 14.5625 1.175781 14.511719 1.238281 C 14.570312 1.960938 14.464844 2.90625 14.464844 2.90625 C 14.425781 2.253906 14.308594 1.476562 14.308594 1.476562 C 14.273438 1.207031 14.230469 0.964844 14.191406 0.785156 C 14.152344 0.578125 13.996094 0.414062 13.789062 0.359375 C 13.554688 0.296875 13.308594 0.398438 13.183594 0.601562 C 12.910156 1.042969 12.480469 1.710938 11.816406 2.328125 C 11.6875 2.320312 11.558594 2.308594 11.429688 2.304688 L 11.417969 2.667969 C 11.277344 2.777344 11.132812 2.878906 10.976562 2.980469 L 10.96875 2.300781 C 10.605469 2.304688 10.234375 2.324219 9.871094 2.367188 L 10 3.472656 C 9.875 3.523438 9.742188 3.566406 9.605469 3.605469 L 9.417969 2.429688 C 9.054688 2.488281 8.691406 2.570312 8.339844 2.667969 L 8.664062 3.847656 C 8.535156 3.886719 8.40625 3.925781 8.277344 3.96875 L 7.898438 2.796875 C 7.550781 2.910156 7.203125 3.042969 6.871094 3.195312 L 7.378906 4.324219 C 7.257812 4.382812 7.136719 4.441406 7.019531 4.503906 L 6.457031 3.394531 C 6.132812 3.558594 5.808594 3.746094 5.503906 3.945312 L 6.1875 4.996094 C 6.074219 5.070312 5.964844 5.144531 5.855469 5.222656 L 5.125 4.203125 C 4.824219 4.417969 4.535156 4.648438 4.265625 4.890625 L 5.105469 5.835938 C 5.007812 5.925781 4.910156 6.019531 4.816406 6.113281 L 3.929688 5.207031 C 3.667969 5.460938 3.417969 5.734375 3.183594 6.015625 L 4.167969 6.828125 C 4.082031 6.933594 4.003906 7.039062 3.921875 7.148438 L 2.898438 6.378906 C 2.679688 6.671875 2.472656 6.976562 2.285156 7.292969 L 3.394531 7.953125 C 3.328125 8.066406 3.261719 8.183594 3.199219 8.300781 L 2.058594 7.695312 C 1.886719 8.019531 1.730469 8.355469 1.59375 8.695312 L 2.800781 9.179688 C 2.75 9.300781 2.703125 9.429688 2.660156 9.554688 L 1.429688 9.125 C 1.308594 9.472656 1.207031 9.828125 1.125 10.183594 L 2.398438 10.480469 C 2.367188 10.609375 2.34375 10.738281 2.320312 10.871094 L 1.03125 10.632812 C 0.964844 10.996094 0.917969 11.363281 0.890625 11.726562 L 2.203125 11.824219 C 2.191406 11.957031 2.183594 12.089844 2.183594 12.226562 L 0.867188 12.183594 C 0.863281 12.289062 0.859375 12.390625 0.859375 12.496094 C 0.859375 12.757812 0.871094 13.023438 0.890625 13.285156 L 2.207031 13.183594 C 2.21875 13.316406 2.230469 13.449219 2.25 13.582031 L 0.9375 13.742188 C 0.980469 14.105469 1.046875 14.472656 1.128906 14.828125 L 2.417969 14.527344 C 2.449219 14.65625 2.480469 14.785156 2.519531 14.914062 L 1.246094 15.273438 C 1.34375 15.625 1.464844 15.976562 1.601562 16.316406 L 2.828125 15.820312 C 2.878906 15.941406 2.933594 16.066406 2.988281 16.1875 L 1.78125 16.738281 C 1.933594 17.070312 2.109375 17.398438 2.296875 17.714844 L 3.433594 17.035156 C 3.5 17.148438 3.570312 17.261719 3.644531 17.375 L 2.539062 18.101562 C 2.738281 18.40625 2.960938 18.707031 3.195312 18.988281 L 4.210938 18.148438 C 4.296875 18.25 4.382812 18.351562 4.472656 18.449219 L 3.496094 19.335938 C 3.742188 19.605469 4.003906 19.867188 4.277344 20.109375 L 5.152344 19.125 C 5.253906 19.214844 5.355469 19.304688 5.457031 19.386719 L 4.628906 20.40625 C 4.910156 20.636719 5.210938 20.855469 5.519531 21.054688 L 6.230469 19.957031 C 6.34375 20.027344 6.457031 20.097656 6.570312 20.167969 L 5.910156 21.296875 C 6.226562 21.480469 6.554688 21.652344 6.890625 21.800781 L 7.421875 20.613281 C 7.542969 20.667969 7.667969 20.722656 7.792969 20.773438 L 7.316406 21.980469 C 7.65625 22.117188 8.007812 22.234375 8.359375 22.328125 L 8.703125 21.082031 C 8.832031 21.117188 8.960938 21.152344 9.089844 21.183594 L 8.808594 22.441406 C 9.164062 22.519531 9.53125 22.582031 9.894531 22.625 L 10.039062 21.351562 C 10.171875 21.367188 10.304688 21.378906 10.441406 21.390625 L 10.351562 22.664062 C 10.585938 22.679688 10.824219 22.691406 11.058594 22.691406 C 11.191406 22.691406 11.324219 22.6875 11.453125 22.683594 L 11.40625 21.414062 C 11.539062 21.40625 11.671875 21.402344 11.808594 21.390625 L 11.910156 22.65625 C 12.277344 22.625 12.644531 22.574219 13.003906 22.503906 L 12.765625 21.269531 C 12.898438 21.242188 13.027344 21.214844 13.160156 21.1875 L 13.453125 22.40625 C 13.808594 22.320312 14.15625 22.214844 14.503906 22.089844 L 13.710938 20.484375 C 13.628906 20.511719 13.550781 20.535156 13.472656 20.558594 C 13.328125 20.601562 13.183594 20.632812 13.039062 20.671875 C 12.894531 20.699219 12.75 20.734375 12.601562 20.757812 C 12.015625 20.863281 11.417969 20.902344 10.824219 20.878906 C 10.230469 20.859375 9.636719 20.777344 9.0625 20.628906 C 6.75 20.058594 4.722656 18.449219 3.652344 16.332031 C 3.113281 15.277344 2.800781 14.109375 2.746094 12.929688 C 2.738281 12.78125 2.738281 12.632812 2.734375 12.484375 C 2.738281 12.339844 2.746094 12.191406 2.753906 12.042969 L 2.761719 11.824219 C 2.765625 11.75 2.78125 11.675781 2.789062 11.601562 L 2.84375 11.164062 C 2.867188 11.019531 2.902344 10.875 2.929688 10.730469 L 2.972656 10.515625 C 2.992188 10.445312 3.015625 10.375 3.035156 10.300781 L 3.160156 9.878906 L 3.3125 9.464844 C 3.339844 9.394531 3.363281 9.324219 3.394531 9.257812 L 3.582031 8.859375 C 3.613281 8.792969 3.640625 8.726562 3.679688 8.660156 L 3.898438 8.277344 L 3.949219 8.179688 L 4.011719 8.089844 L 4.132812 7.90625 C 4.289062 7.65625 4.480469 7.433594 4.660156 7.199219 C 4.753906 7.085938 4.855469 6.980469 4.953125 6.871094 L 5.101562 6.710938 L 5.261719 6.558594 C 5.671875 6.144531 6.148438 5.792969 6.636719 5.476562 L 7.015625 5.253906 C 7.140625 5.183594 7.277344 5.125 7.40625 5.058594 L 7.601562 4.960938 C 7.667969 4.929688 7.738281 4.90625 7.804688 4.878906 L 8.207031 4.71875 L 7.804688 4.890625 C 7.742188 4.921875 7.671875 4.949219 7.605469 4.980469 L 7.414062 5.082031 C 7.285156 5.152344 7.15625 5.214844 7.03125 5.292969 L 6.660156 5.523438 C 6.183594 5.847656 5.71875 6.207031 5.320312 6.625 L 5.167969 6.78125 L 5.023438 6.945312 C 4.929688 7.054688 4.832031 7.160156 4.742188 7.273438 C 4.570312 7.507812 4.390625 7.730469 4.242188 7.980469 L 4.125 8.164062 L 4.066406 8.253906 L 4.015625 8.351562 L 3.8125 8.730469 C 3.777344 8.792969 3.75 8.863281 3.722656 8.925781 L 3.632812 9.125 L 3.546875 9.324219 C 3.515625 9.390625 3.496094 9.460938 3.472656 9.527344 L 3.324219 9.933594 L 3.210938 10.347656 C 3.191406 10.417969 3.171875 10.488281 3.15625 10.558594 L 3.113281 10.769531 C 3.089844 10.910156 3.058594 11.054688 3.035156 11.195312 L 2.988281 11.625 C 2.980469 11.695312 2.96875 11.765625 2.96875 11.839844 L 2.960938 12.054688 C 2.957031 12.199219 2.949219 12.34375 2.949219 12.484375 C 2.957031 12.628906 2.957031 12.773438 2.964844 12.917969 C 3.039062 14.0625 3.359375 15.191406 3.898438 16.203125 C 4.164062 16.707031 4.484375 17.1875 4.851562 17.625 C 5.21875 18.066406 5.632812 18.464844 6.082031 18.816406 C 6.980469 19.519531 8.03125 20.039062 9.140625 20.304688 C 9.695312 20.441406 10.261719 20.515625 10.832031 20.53125 C 11.40625 20.550781 11.976562 20.507812 12.535156 20.40625 C 12.675781 20.382812 12.816406 20.347656 12.953125 20.316406 C 13.09375 20.28125 13.230469 20.25 13.367188 20.207031 C 13.414062 20.191406 13.460938 20.179688 13.503906 20.164062 C 13.476562 20.117188 13.445312 20.066406 13.417969 20.015625 C 12.875 20.074219 12.332031 20.082031 11.785156 20.019531 C 11.3125 19.964844 10.839844 19.855469 10.394531 19.667969 C 9.949219 19.484375 9.527344 19.230469 9.175781 18.898438 C 8.820312 18.570312 8.519531 18.175781 8.316406 17.738281 C 8.109375 17.300781 7.984375 16.828125 7.945312 16.351562 C 7.902344 15.875 7.9375 15.394531 8.03125 14.929688 L 8.113281 14.589844 C 8.121094 14.539062 8.136719 14.488281 8.136719 14.4375 L 8.140625 14.359375 L 8.132812 14.28125 C 8.117188 14.074219 8.03125 13.867188 7.929688 13.667969 C 7.71875 13.269531 7.433594 12.898438 7.191406 12.5 C 7.070312 12.300781 6.953125 12.097656 6.851562 11.882812 C 6.75 11.671875 6.667969 11.449219 6.609375 11.222656 C 6.542969 10.996094 6.511719 10.757812 6.503906 10.523438 C 6.5 10.40625 6.507812 10.289062 6.515625 10.171875 C 6.519531 10.113281 6.53125 10.054688 6.539062 9.996094 L 6.550781 9.910156 L 6.566406 9.824219 C 6.660156 9.363281 6.851562 8.933594 7.09375 8.535156 C 6.871094 8.945312 6.710938 9.382812 6.632812 9.835938 L 6.617188 9.921875 L 6.609375 10.007812 C 6.605469 10.0625 6.597656 10.121094 6.59375 10.175781 C 6.59375 10.292969 6.589844 10.40625 6.601562 10.519531 C 6.613281 10.746094 6.65625 10.972656 6.726562 11.1875 C 6.855469 11.625 7.085938 12.023438 7.339844 12.40625 C 7.589844 12.789062 7.878906 13.152344 8.113281 13.566406 C 8.230469 13.777344 8.332031 14.003906 8.363281 14.257812 L 8.371094 14.351562 C 8.371094 14.382812 8.371094 14.417969 8.371094 14.449219 C 8.371094 14.515625 8.359375 14.578125 8.347656 14.640625 L 8.277344 14.976562 C 8.195312 15.421875 8.175781 15.878906 8.226562 16.324219 C 8.324219 17.210938 8.734375 18.0625 9.402344 18.648438 C 9.726562 18.945312 10.117188 19.171875 10.527344 19.335938 C 10.941406 19.5 11.378906 19.601562 11.824219 19.652344 C 12.285156 19.699219 12.75 19.695312 13.214844 19.652344 C 11.929688 17.238281 11.601562 14.839844 11.515625 13.671875 C 8.5625 12.277344 9.136719 10.027344 9.136719 10.027344 C 9.300781 12.445312 11.488281 13.085938 11.488281 13.085938 C 11.769531 13.203125 12.070312 13.277344 12.386719 13.304688 L 12.382812 13.3125 C 12.382812 13.3125 15.105469 13.222656 16.441406 15.289062 C 17.777344 17.359375 18.46875 17.1875 18.921875 16.949219 C 18.921875 16.949219 20.308594 17.09375 20.292969 15.597656 L 20.292969 15.589844 C 20.839844 15.371094 21.144531 14.621094 20.976562 13.816406 " clip-rule="nonzero"/></clipPath><clipPath id="aeb9fc3af0"><rect x="0" width="22" y="0" height="23"/></clipPath></defs><g clip-path="url(#7e5c1dfc86)"><g clip-path="url(#b9d0755098)"><g transform="matrix(1, 0, 0, 1, 1, 0.000000000000005773)"><g clip-path="url(#d21d0f1f4e)"><g clip-path="url(#046ebfbff5)"><g clip-path="url(#3fb5cc01ef)"><path fill="#ff751f" d="M 0.0546875 0.742188 L 27.832031 0.742188 L 27.832031 28.519531 L 0.0546875 28.519531 Z M 0.0546875 0.742188 " fill-opacity="1" fill-rule="nonzero"/></g></g></g></g></g></g><g clip-path="url(#76e01dcbd2)"><g clip-path="url(#3900a44e4c)"><g transform="matrix(1, 0, 0, 1, 4, 3)"><g clip-path="url(#aeb9fc3af0)"><g clip-path="url(#805b4fccf4)"><g clip-path="url(#fab517ffd2)"><path fill="#00021a" d="M 0.859375 0.34375 L 21.023438 0.34375 L 21.023438 22.710938 L 0.859375 22.710938 Z M 0.859375 0.34375 " fill-opacity="1" fill-rule="nonzero"/></g></g></g></g></g></g></svg>